<svg width="50" height="51" viewBox="0 0 50 51" fill="none" xmlns="http://www.w3.org/2000/svg">
<path fill-rule="evenodd" clip-rule="evenodd" d="M16.6708 9.98543C22.2883 9.56233 27.9307 9.59019 33.5437 10.0688L36.9271 10.3563C38.1683 10.4624 39.3377 10.9827 40.2476 11.8336C41.1574 12.6845 41.7548 13.8166 41.9437 15.0479L42.1562 16.4417C42.8792 21.1665 42.8116 25.9786 41.9562 30.6813C41.7525 31.8061 41.16 32.8236 40.2822 33.5559C39.4045 34.2882 38.2973 34.6887 37.1541 34.6875H18.4541C18.0229 34.6875 17.6 34.7938 17.2208 34.9979L9.0729 39.3771C8.8348 39.505 8.56759 39.569 8.29737 39.5628C8.02714 39.5566 7.76316 39.4804 7.5312 39.3416C7.29924 39.2029 7.10724 39.0063 6.97397 38.7712C6.84069 38.536 6.77069 38.2703 6.77081 38V20.2563C6.77135 17.6664 7.75025 15.1724 9.51148 13.2736C11.2727 11.3749 13.6862 10.2116 16.2687 10.0167L16.6708 9.98543ZM16.6666 20.2917C15.976 20.2917 15.3136 20.566 14.8252 21.0544C14.3368 21.5428 14.0625 22.2052 14.0625 22.8959C14.0625 23.5865 14.3368 24.2489 14.8252 24.7373C15.3136 25.2256 15.976 25.5 16.6666 25.5C17.3573 25.5 18.0197 25.2256 18.5081 24.7373C18.9964 24.2489 19.2708 23.5865 19.2708 22.8959C19.2708 22.2052 18.9964 21.5428 18.5081 21.0544C18.0197 20.566 17.3573 20.2917 16.6666 20.2917ZM25 20.2917C24.3093 20.2917 23.6469 20.566 23.1586 21.0544C22.6702 21.5428 22.3958 22.2052 22.3958 22.8959C22.3958 23.5865 22.6702 24.2489 23.1586 24.7373C23.6469 25.2256 24.3093 25.5 25 25.5C25.6906 25.5 26.353 25.2256 26.8414 24.7373C27.3298 24.2489 27.6041 23.5865 27.6041 22.8959C27.6041 22.2052 27.3298 21.5428 26.8414 21.0544C26.353 20.566 25.6906 20.2917 25 20.2917ZM30.7291 22.8959C30.7291 22.2052 31.0035 21.5428 31.4919 21.0544C31.9803 20.566 32.6426 20.2917 33.3333 20.2917C34.024 20.2917 34.6864 20.566 35.1747 21.0544C35.6631 21.5428 35.9375 22.2052 35.9375 22.8959C35.9375 23.5865 35.6631 24.2489 35.1747 24.7373C34.6864 25.2256 34.024 25.5 33.3333 25.5C32.6426 25.5 31.9803 25.2256 31.4919 24.7373C31.0035 24.2489 30.7291 23.5865 30.7291 22.8959Z" fill="#FF9500"/>
</svg>
