<svg width="198" height="38" viewBox="0 0 198 38" fill="none" xmlns="http://www.w3.org/2000/svg">
<path d="M6.7565 29.564C4.9645 29.564 3.4925 28.988 2.3405 27.836C1.1885 26.684 0.6125 25.212 0.6125 23.42V4.124C0.6125 3.036 0.9965 2.14 1.7645 1.436C2.5325 0.667998 3.5245 0.283998 4.7405 0.283998C5.8285 0.283998 6.7565 0.667998 7.5245 1.436C8.3565 2.14 8.7725 3.036 8.7725 4.124V6.428C8.7725 7.132 8.9325 7.644 9.2525 7.964C9.5725 8.22 9.8925 8.316 10.2125 8.252H15.5885C16.6765 8.252 17.2205 7.612 17.2205 6.332V3.932C17.2205 2.78 17.5725 1.852 18.2765 1.148C19.0445 0.379997 20.0365 -0.00400352 21.2525 -0.00400352C22.3405 -0.00400352 23.2685 0.379997 24.0365 1.148C24.8685 1.852 25.2845 2.78 25.2845 3.932V23.42C25.2845 25.212 24.7405 26.684 23.6525 27.836C22.5645 28.988 21.0925 29.564 19.2365 29.564H6.7565ZM32.5805 8.156C32.5805 6.876 32.9645 5.884 33.7325 5.18C34.5005 4.476 35.4925 4.124 36.7085 4.124C37.9245 4.124 38.7885 4.412 39.3005 4.988C39.8765 5.564 40.2605 6.172 40.4525 6.812C40.6445 7.388 40.7405 7.836 40.7405 8.156V12.956C40.7405 14.684 41.5405 15.548 43.1405 15.548H45.6365C47.1085 15.548 48.1325 15.932 48.7085 16.7C49.2845 17.468 49.5725 18.332 49.5725 19.292C49.5725 20.38 49.2205 21.308 48.5165 22.076C47.8125 22.78 46.8525 23.132 45.6365 23.132H43.1405C41.5405 23.132 40.7405 23.836 40.7405 25.244V33.596C40.7405 34.812 40.3245 35.804 39.4925 36.572C38.7245 37.34 37.7965 37.724 36.7085 37.724C35.4925 37.724 34.5005 37.34 33.7325 36.572C32.9645 35.804 32.5805 34.812 32.5805 33.596V8.156ZM8.6765 19.388C8.6765 20.22 8.7405 20.828 8.8685 21.212C9.0605 21.596 9.6045 21.788 10.5005 21.788H15.1085C16.0685 21.788 16.6445 21.596 16.8365 21.212C17.0925 20.828 17.2205 20.22 17.2205 19.388V17.564C17.2205 16.924 17.0925 16.444 16.8365 16.124C16.6445 15.74 16.0365 15.548 15.0125 15.548H10.5965C9.7645 15.548 9.2205 15.708 8.9645 16.028C8.7725 16.348 8.6765 16.86 8.6765 17.564V19.388ZM55.3625 9.884C55.3625 8.796 55.7465 7.9 56.5145 7.196C57.2825 6.428 58.2745 6.044 59.4905 6.044C60.5785 6.044 61.5065 6.428 62.2745 7.196C63.1065 7.9 63.5225 8.796 63.5225 9.884V18.14C63.5225 19.164 63.7785 20.06 64.2905 20.828C64.8665 21.596 65.7945 21.98 67.0745 21.98H77.4425C78.5945 21.98 79.5545 22.3 80.3225 22.94C81.1545 23.58 81.5705 24.508 81.5705 25.724C81.5705 26.876 81.1545 27.836 80.3225 28.604C79.5545 29.308 78.5945 29.66 77.4425 29.66H61.5065C59.8425 29.66 58.4025 29.148 57.1865 28.124C55.9705 27.036 55.3625 25.532 55.3625 23.612V9.884ZM94.2425 33.212C94.2425 34.428 93.8585 35.42 93.0905 36.188C92.3865 36.956 91.4585 37.34 90.3065 37.34C89.1545 37.34 88.1625 36.956 87.3305 36.188C86.4985 35.42 86.0825 34.428 86.0825 33.212V7.964C86.0825 7.644 86.1785 7.196 86.3705 6.62C86.6265 5.98 87.0425 5.372 87.6185 4.796C88.2585 4.22 89.1545 3.932 90.3065 3.932C91.5225 3.932 92.4825 4.316 93.1865 5.084C93.8905 5.788 94.2425 6.748 94.2425 7.964V33.212ZM110.444 29.564C108.652 29.564 107.18 28.988 106.028 27.836C104.876 26.684 104.3 25.212 104.3 23.42V4.124C104.3 3.036 104.684 2.14 105.452 1.436C106.22 0.667998 107.212 0.283998 108.428 0.283998C109.516 0.283998 110.444 0.667998 111.212 1.436C112.044 2.14 112.46 3.036 112.46 4.124V6.428C112.46 7.132 112.62 7.644 112.94 7.964C113.26 8.22 113.58 8.316 113.9 8.252H119.276C120.364 8.252 120.908 7.612 120.908 6.332V3.932C120.908 2.78 121.26 1.852 121.964 1.148C122.732 0.379997 123.724 -0.00400352 124.94 -0.00400352C126.028 -0.00400352 126.956 0.379997 127.724 1.148C128.556 1.852 128.972 2.78 128.972 3.932V23.42C128.972 25.212 128.428 26.684 127.34 27.836C126.252 28.988 124.78 29.564 122.924 29.564H110.444ZM136.268 8.156C136.268 6.876 136.652 5.884 137.42 5.18C138.188 4.476 139.18 4.124 140.396 4.124C141.612 4.124 142.476 4.412 142.988 4.988C143.564 5.564 143.948 6.172 144.14 6.812C144.332 7.388 144.428 7.836 144.428 8.156V12.956C144.428 14.684 145.228 15.548 146.828 15.548H149.324C150.796 15.548 151.82 15.932 152.396 16.7C152.972 17.468 153.26 18.332 153.26 19.292C153.26 20.38 152.908 21.308 152.204 22.076C151.5 22.78 150.54 23.132 149.324 23.132H146.828C145.228 23.132 144.428 23.836 144.428 25.244V33.596C144.428 34.812 144.012 35.804 143.18 36.572C142.412 37.34 141.484 37.724 140.396 37.724C139.18 37.724 138.188 37.34 137.42 36.572C136.652 35.804 136.268 34.812 136.268 33.596V8.156ZM112.364 19.388C112.364 20.22 112.428 20.828 112.556 21.212C112.748 21.596 113.292 21.788 114.188 21.788H118.796C119.756 21.788 120.332 21.596 120.524 21.212C120.78 20.828 120.908 20.22 120.908 19.388V17.564C120.908 16.924 120.78 16.444 120.524 16.124C120.332 15.74 119.724 15.548 118.7 15.548H114.284C113.452 15.548 112.908 15.708 112.652 16.028C112.46 16.348 112.364 16.86 112.364 17.564V19.388ZM159.05 9.884C159.05 8.796 159.434 7.9 160.202 7.196C160.97 6.428 161.962 6.044 163.178 6.044C164.266 6.044 165.194 6.428 165.962 7.196C166.794 7.9 167.21 8.796 167.21 9.884V18.14C167.21 19.164 167.466 20.06 167.978 20.828C168.554 21.596 169.482 21.98 170.762 21.98H181.13C182.282 21.98 183.242 22.3 184.01 22.94C184.842 23.58 185.258 24.508 185.258 25.724C185.258 26.876 184.842 27.836 184.01 28.604C183.242 29.308 182.282 29.66 181.13 29.66H165.194C163.53 29.66 162.09 29.148 160.874 28.124C159.658 27.036 159.05 25.532 159.05 23.612V9.884ZM197.93 33.212C197.93 34.428 197.546 35.42 196.778 36.188C196.074 36.956 195.146 37.34 193.994 37.34C192.842 37.34 191.85 36.956 191.018 36.188C190.186 35.42 189.77 34.428 189.77 33.212V7.964C189.77 7.644 189.866 7.196 190.058 6.62C190.314 5.98 190.73 5.372 191.306 4.796C191.946 4.22 192.842 3.932 193.994 3.932C195.21 3.932 196.17 4.316 196.874 5.084C197.578 5.788 197.93 6.748 197.93 7.964V33.212Z" fill="#FF9500"/>
</svg>
