<svg width="50" height="51" viewBox="0 0 50 51" fill="none" xmlns="http://www.w3.org/2000/svg">
<g clip-path="url(#clip0_16_735)">
<path d="M38.8889 6.05554H16.6667C15.93 6.05554 15.2234 6.3482 14.7025 6.86913C14.1816 7.39007 13.8889 8.09661 13.8889 8.83332V18.5555H25.6945L21 13.9861C20.7725 13.7204 20.6536 13.3786 20.6671 13.0291C20.6806 12.6795 20.8255 12.3479 21.0729 12.1006C21.3202 11.8532 21.6518 11.7083 22.0013 11.6948C22.3509 11.6813 22.6927 11.8002 22.9584 12.0278L31 20.0694L22.9584 28.1111C22.6927 28.3386 22.3509 28.4575 22.0013 28.444C21.6518 28.4305 21.3202 28.2856 21.0729 28.0383C20.8255 27.7909 20.6806 27.4593 20.6671 27.1098C20.6536 26.7602 20.7725 26.4185 21 26.1528L25.6945 21.3333H13.8889V42.1667C13.8889 42.9034 14.1816 43.6099 14.7025 44.1308C15.2234 44.6518 15.93 44.9444 16.6667 44.9444H38.8889C39.6256 44.9444 40.3322 44.6518 40.8531 44.1308C41.374 43.6099 41.6667 42.9034 41.6667 42.1667V8.83332C41.6667 8.09661 41.374 7.39007 40.8531 6.86913C40.3322 6.3482 39.6256 6.05554 38.8889 6.05554Z" fill="#FF9500"/>
<path d="M13.8889 18.5555H5.55558C5.18722 18.5555 4.83395 18.7019 4.57348 18.9623C4.31302 19.2228 4.16669 19.5761 4.16669 19.9444C4.16669 20.3128 4.31302 20.6661 4.57348 20.9265C4.83395 21.187 5.18722 21.3333 5.55558 21.3333H13.8889V18.5555Z" fill="#FF9500"/>
</g>
<defs>
<clipPath id="clip0_16_735">
<rect width="50" height="50" fill="white" transform="translate(0 0.5)"/>
</clipPath>
</defs>
</svg>
