<svg width="50" height="51" viewBox="0 0 50 51" fill="none" xmlns="http://www.w3.org/2000/svg">
<path d="M25 4.66669C22.7898 4.66669 20.6702 5.54466 19.1074 7.10746C17.5446 8.67027 16.6666 10.7899 16.6666 13C16.6666 15.2102 17.5446 17.3298 19.1074 18.8926C20.6702 20.4554 22.7898 21.3334 25 21.3334C27.2101 21.3334 29.3297 20.4554 30.8925 18.8926C32.4553 17.3298 33.3333 15.2102 33.3333 13C33.3333 10.7899 32.4553 8.67027 30.8925 7.10746C29.3297 5.54466 27.2101 4.66669 25 4.66669ZM35.4166 25.5H14.5833C12.9257 25.5 11.336 26.1585 10.1639 27.3306C8.99179 28.5027 8.33331 30.0924 8.33331 31.75C8.33331 36.4 10.2458 40.125 13.3833 42.6459C16.4708 45.125 20.6125 46.3334 25 46.3334C29.3875 46.3334 33.5291 45.125 36.6166 42.6459C39.75 40.125 41.6666 36.4 41.6666 31.75C41.6666 30.0924 41.0082 28.5027 39.8361 27.3306C38.664 26.1585 37.0742 25.5 35.4166 25.5Z" fill="#FF9500"/>
</svg>
